<svg width="100" height="100" viewBox="0 0 100 100" fill="none" xmlns="http://www.w3.org/2000/svg">
<g id="ph:fish" clip-path="url(#clip0_1_82)">
<path id="Vector" d="M65.6491 29.6641C65.6491 30.5912 65.3742 31.4975 64.8591 32.2683C64.3441 33.0392 63.612 33.64 62.7554 33.9948C61.8989 34.3496 60.9564 34.4424 60.0471 34.2615C59.1378 34.0807 58.3026 33.6342 57.647 32.9786C56.9915 32.3231 56.545 31.4879 56.3642 30.5786C56.1833 29.6693 56.2761 28.7268 56.6309 27.8703C56.9857 27.0137 57.5865 26.2816 58.3574 25.7666C59.1282 25.2515 60.0345 24.9766 60.9616 24.9766C62.2048 24.9766 63.3971 25.4704 64.2762 26.3495C65.1553 27.2286 65.6491 28.4209 65.6491 29.6641ZM81.2233 61.3047C73.114 71.6055 60.1882 77.2188 42.7819 78.0117L34.1882 98.0977C33.9476 98.6636 33.5453 99.146 33.0318 99.4844C32.5183 99.8228 31.9164 100.002 31.3015 100H31.1022C30.4583 99.9597 29.8426 99.721 29.3397 99.3167C28.8368 98.9125 28.4714 98.3625 28.2936 97.7422L22.5085 77.4883L2.2663 71.6914C1.64431 71.5167 1.09176 71.1535 0.684685 70.6519C0.277615 70.1502 0.0360385 69.5347 -0.00679438 68.89C-0.0496273 68.2454 0.108389 67.6033 0.445505 67.0522C0.782622 66.5011 1.28227 66.068 1.87567 65.8125L21.9655 57.2188C22.7468 39.8086 28.3757 26.8828 38.6804 18.7774C55.5593 5.49612 79.6608 9.8594 84.321 10.8672C85.495 11.1209 86.5711 11.7075 87.4204 12.5568C88.2698 13.4062 88.8564 14.4822 89.11 15.6563C90.1413 20.3125 94.5085 44.4375 81.2233 61.3281V61.3047ZM63.1257 67.4258C59.5131 66.0498 56.367 63.6736 54.0552 60.5753C51.7434 57.477 50.3615 53.7845 50.071 49.9297C46.217 49.6398 42.5253 48.2585 39.4276 45.9473C36.3299 43.6361 33.9544 40.4907 32.5788 36.8789C29.8444 43.0742 28.3757 50.5938 28.1647 59.3867C28.1502 59.9855 27.9638 60.5674 27.628 61.0632C27.2921 61.5591 26.8208 61.948 26.2702 62.1836L12.4382 68.1016L25.8991 71.9571C26.4092 72.1031 26.8738 72.3765 27.249 72.7517C27.6242 73.1269 27.8976 73.5915 28.0436 74.1016L31.8874 87.5625L37.8171 73.7305C38.0535 73.1781 38.4442 72.7056 38.9424 72.3696C39.4405 72.0336 40.0249 71.8483 40.6257 71.836C49.4069 71.6289 56.9265 70.1524 63.1257 67.4258ZM83.0202 16.9805C78.8405 16.0742 57.239 12.1407 42.5632 23.6914C40.7134 25.1493 39.0324 26.8093 37.5515 28.6406C37.4015 30.6826 37.6993 32.7327 38.4239 34.6476C39.1486 36.5625 40.2826 38.2961 41.7469 39.7272C43.2111 41.1583 44.9701 42.2524 46.9011 42.9331C48.8321 43.6138 50.8885 43.8646 52.9265 43.668C53.3846 43.6245 53.8467 43.6828 54.2797 43.8386C54.7127 43.9944 55.106 44.2439 55.4314 44.5693C55.7568 44.8947 56.0063 45.288 56.1621 45.721C56.3179 46.154 56.3762 46.6161 56.3327 47.0742C56.136 49.1129 56.3869 51.17 57.068 53.1016C57.7492 55.0332 58.844 56.7927 60.276 58.257C61.708 59.7214 63.4426 60.8553 65.3585 61.5794C67.2743 62.3035 69.3253 62.6004 71.3679 62.4492C73.1966 60.9709 74.8541 59.2925 76.3093 57.4453C87.8601 42.7696 83.9265 21.1641 83.0202 16.9805Z" fill="#DEAD6F" fill-opacity="0.6"/>
</g>
<defs>
<clipPath id="clip0_1_82">
<rect width="100" height="100" fill="white"/>
</clipPath>
</defs>
</svg>
