<svg width="101" height="100" viewBox="0 0 101 100" fill="none" xmlns="http://www.w3.org/2000/svg">
<g id="ph:dog">
<path id="Vector" d="M94.1365 48.8279L87.7224 14.4529C87.5657 13.615 87.2392 12.818 86.763 12.111C86.2869 11.4039 85.6711 10.8017 84.9537 10.3415C84.2362 9.88119 83.4321 9.57255 82.5909 9.43452C81.7497 9.2965 80.8892 9.33201 80.0622 9.53887L79.9411 9.57403L59.4255 15.6248H41.574L21.0583 9.59356L20.9372 9.5584C20.1103 9.35154 19.2498 9.31603 18.4086 9.45405C17.5674 9.59208 16.7633 9.90072 16.0458 10.361C15.3283 10.8213 14.7126 11.4235 14.2364 12.1305C13.7603 12.8376 13.4338 13.6346 13.2771 14.4725L6.86302 48.8279C6.58874 50.2038 6.79233 51.6322 7.44014 52.8766C8.08794 54.1211 9.14114 55.1071 10.4255 55.6717C11.2481 56.0489 12.1417 56.246 13.0466 56.2498C14.1297 56.2493 15.1928 55.9579 16.1247 55.4061V71.8748C16.1247 76.0188 17.7709 79.9931 20.7012 82.9234C23.6315 85.8536 27.6057 87.4998 31.7497 87.4998H69.2497C73.3937 87.4998 77.368 85.8536 80.2983 82.9234C83.2285 79.9931 84.8747 76.0188 84.8747 71.8748V55.41C85.8057 55.9608 86.8672 56.2521 87.949 56.2537C88.8548 56.2511 89.7497 56.0553 90.574 55.6795C91.8599 55.1147 92.9142 54.1274 93.5621 52.8813C94.21 51.6351 94.4127 50.205 94.1365 48.8279ZM12.9997 49.9998L19.4177 15.6248L35.8513 20.4568L12.9997 49.9998ZM69.2497 81.2498H53.6247V76.2928L58.9607 70.9608C59.5471 70.3744 59.8765 69.5791 59.8765 68.7498C59.8765 67.9206 59.5471 67.1253 58.9607 66.5389C58.3743 65.9525 57.579 65.6231 56.7497 65.6231C55.9205 65.6231 55.1252 65.9525 54.5388 66.5389L50.4997 70.5819L46.4607 66.5389C45.8743 65.9525 45.079 65.6231 44.2497 65.6231C43.4205 65.6231 42.6252 65.9525 42.0388 66.5389C41.4524 67.1253 41.123 67.9206 41.123 68.7498C41.123 69.5791 41.4524 70.3744 42.0388 70.9608L47.3747 76.2928V81.2498H31.7497C29.2633 81.2498 26.8788 80.2621 25.1206 78.5039C23.3625 76.7458 22.3747 74.3612 22.3747 71.8748V48.0897L42.656 21.8748H58.3396L78.6247 48.0897V71.8748C78.6247 74.3612 77.637 76.7458 75.8789 78.5039C74.1207 80.2621 71.7361 81.2498 69.2497 81.2498ZM87.9997 49.9998L65.1482 20.4568L81.5818 15.6248L87.9997 49.9998ZM41.1247 54.6873C41.1247 55.6144 40.8498 56.5207 40.3348 57.2915C39.8197 58.0624 39.0876 58.6632 38.2311 59.018C37.3745 59.3728 36.432 59.4656 35.5228 59.2847C34.6135 59.1039 33.7782 58.6574 33.1227 58.0019C32.4671 57.3463 32.0207 56.5111 31.8398 55.6018C31.6589 54.6925 31.7518 53.75 32.1066 52.8935C32.4613 52.037 33.0621 51.3049 33.833 50.7898C34.6039 50.2747 35.5101 49.9998 36.4372 49.9998C37.6804 49.9998 38.8727 50.4937 39.7518 51.3728C40.6309 52.2518 41.1247 53.4441 41.1247 54.6873ZM69.2497 54.6873C69.2497 55.6144 68.9748 56.5207 68.4598 57.2915C67.9447 58.0624 67.2126 58.6632 66.3561 59.018C65.4995 59.3728 64.557 59.4656 63.6478 59.2847C62.7385 59.1039 61.9032 58.6574 61.2477 58.0019C60.5921 57.3463 60.1457 56.5111 59.9648 55.6018C59.7839 54.6925 59.8768 53.75 60.2316 52.8935C60.5863 52.037 61.1871 51.3049 61.958 50.7898C62.7289 50.2747 63.6351 49.9998 64.5622 49.9998C65.8054 49.9998 66.9977 50.4937 67.8768 51.3728C68.7559 52.2518 69.2497 53.4441 69.2497 54.6873Z" fill="#DEAD6F" fill-opacity="0.6"/>
</g>
</svg>
