<svg width="100" height="100" viewBox="0 0 100 100" fill="none" xmlns="http://www.w3.org/2000/svg">
<g id="ph:bowl-food">
<path id="Vector" d="M87.5 40.625H84.2305C83.4453 32.0894 79.4994 24.155 73.1668 18.3782C66.8341 12.6014 58.5717 9.39893 50 9.39893C41.4283 9.39893 33.1659 12.6014 26.8332 18.3782C20.5006 24.155 16.5547 32.0894 15.7695 40.625H12.5C11.6712 40.625 10.8763 40.9543 10.2903 41.5403C9.70424 42.1264 9.375 42.9212 9.375 43.75C9.38873 51.1817 11.434 58.4683 15.2895 64.8217C19.145 71.175 24.6642 76.3534 31.25 79.7969V81.25C31.25 82.9076 31.9085 84.4973 33.0806 85.6694C34.2527 86.8415 35.8424 87.5 37.5 87.5H62.5C64.1576 87.5 65.7473 86.8415 66.9194 85.6694C68.0915 84.4973 68.75 82.9076 68.75 81.25V79.7969C75.3358 76.3534 80.855 71.175 84.7105 64.8217C88.566 58.4683 90.6113 51.1817 90.625 43.75C90.625 42.9212 90.2958 42.1264 89.7097 41.5403C89.1237 40.9543 88.3288 40.625 87.5 40.625ZM77.9453 40.625H57.8594C61.6481 34.941 67.38 30.8341 73.9805 29.0742C76.1386 32.5846 77.4926 36.5293 77.9453 40.625ZM67.7656 21.9649C68.4818 22.5508 69.168 23.1693 69.8242 23.8203C61.5053 26.7467 54.6309 32.761 50.625 40.6172H39.1016C41.0547 35.1423 44.6505 30.4039 49.3978 27.0494C54.145 23.6949 59.8122 21.8878 65.625 21.875C66.3398 21.875 67.0547 21.9102 67.7656 21.9649ZM50 15.625C52.5077 15.6267 55.0039 15.9643 57.4219 16.6289C51.5329 18.0898 46.1331 21.0771 41.7667 25.2899C37.4003 29.5028 34.2215 34.7922 32.5508 40.625H22.0547C22.8299 33.7534 26.1067 27.4073 31.2606 22.7967C36.4144 18.186 43.0848 15.6332 50 15.625ZM64.3203 75C63.7752 75.2505 63.3137 75.6525 62.9909 76.1582C62.6681 76.6638 62.4977 77.2517 62.5 77.8516V81.25H37.5V77.8516C37.5023 77.2517 37.3319 76.6638 37.0091 76.1582C36.6863 75.6525 36.2248 75.2505 35.6797 75C30.1841 72.4711 25.4503 68.5411 21.9535 63.6045C18.4568 58.6679 16.3201 52.8984 15.7578 46.875H84.2305C83.6693 52.8972 81.5344 58.6659 78.0397 63.6024C74.5451 68.5389 69.8138 72.4695 64.3203 75Z" fill="#DEAD6F" fill-opacity="0.6"/>
</g>
</svg>
