<svg width="101" height="100" viewBox="0 0 101 100" fill="none" xmlns="http://www.w3.org/2000/svg">
<g id="ph:cat">
<path id="Vector" d="M38 54.6875C38 55.6146 37.7251 56.5209 37.21 57.2918C36.6949 58.0626 35.9629 58.6634 35.1063 59.0182C34.2498 59.373 33.3073 59.4658 32.398 59.285C31.4887 59.1041 30.6535 58.6577 29.9979 58.0021C29.3424 57.3465 28.8959 56.5113 28.7151 55.602C28.5342 54.6927 28.627 53.7502 28.9818 52.8937C29.3366 52.0372 29.9374 51.3051 30.7083 50.79C31.4791 50.275 32.3854 50 33.3125 50C34.5557 50 35.748 50.4939 36.6271 51.373C37.5061 52.2521 38 53.4443 38 54.6875ZM67.6875 50C66.7604 50 65.8541 50.275 65.0833 50.79C64.3124 51.3051 63.7116 52.0372 63.3568 52.8937C63.002 53.7502 62.9092 54.6927 63.0901 55.602C63.2709 56.5113 63.7174 57.3465 64.3729 58.0021C65.0285 58.6577 65.8637 59.1041 66.773 59.285C67.6823 59.4658 68.6248 59.373 69.4813 59.0182C70.3379 58.6634 71.0699 58.0626 71.585 57.2918C72.1001 56.5209 72.375 55.6146 72.375 54.6875C72.375 53.4443 71.8811 52.2521 71.0021 51.373C70.123 50.4939 68.9307 50 67.6875 50ZM91.125 18.75V53.125C91.125 73.8008 72.9023 90.625 50.5 90.625C28.0977 90.625 9.875 73.8008 9.875 53.125V18.75C9.87557 17.5143 10.2424 16.3065 10.9292 15.2792C11.616 14.252 12.5919 13.4513 13.7336 12.9785C14.8753 12.5057 16.1315 12.3819 17.3435 12.6229C18.5555 12.8638 19.6689 13.4586 20.543 14.3321C20.5977 14.3868 20.6445 14.4375 20.6914 14.4922L27.4531 22.2657C34.367 17.934 42.3608 15.6366 50.5195 15.6366C58.6783 15.6366 66.6721 17.934 73.5859 22.2657L80.3086 14.4922C80.3555 14.4375 80.4023 14.3868 80.457 14.3321C81.3311 13.4586 82.4445 12.8638 83.6565 12.6229C84.8685 12.3819 86.1247 12.5057 87.2664 12.9785C88.4081 13.4513 89.384 14.252 90.0708 15.2792C90.7576 16.3065 91.1244 17.5143 91.125 18.75ZM84.875 18.75L76.4531 28.4375C75.938 29.0335 75.2167 29.413 74.4337 29.4999C73.6507 29.5868 72.8638 29.3748 72.2305 28.9063C70.3241 27.4965 68.2782 26.2857 66.125 25.293V34.375C66.125 35.2038 65.7958 35.9987 65.2097 36.5847C64.6237 37.1708 63.8288 37.5 63 37.5C62.1712 37.5 61.3763 37.1708 60.7903 36.5847C60.2042 35.9987 59.875 35.2038 59.875 34.375V23.0664C57.8248 22.5391 55.7343 22.1837 53.625 22.0039V34.375C53.625 35.2038 53.2958 35.9987 52.7097 36.5847C52.1237 37.1708 51.3288 37.5 50.5 37.5C49.6712 37.5 48.8763 37.1708 48.2903 36.5847C47.7042 35.9987 47.375 35.2038 47.375 34.375V22.0039C45.2657 22.1837 43.1752 22.5391 41.125 23.0664V34.375C41.125 35.2038 40.7958 35.9987 40.2097 36.5847C39.6237 37.1708 38.8288 37.5 38 37.5C37.1712 37.5 36.3763 37.1708 35.7903 36.5847C35.2042 35.9987 34.875 35.2038 34.875 34.375V25.293C32.7218 26.2857 30.6759 27.4965 28.7695 28.9063C28.1376 29.3762 27.3515 29.5901 26.5686 29.5054C25.7857 29.4207 25.0636 29.0435 24.5469 28.4493L16.125 18.75V53.125C16.125 69.3985 29.8789 82.8125 47.375 84.2461V76.293L42.0391 70.9571C41.749 70.6667 41.5189 70.3221 41.362 69.9428C41.2051 69.5636 41.1245 69.1571 41.1246 68.7467C41.1248 68.3363 41.2058 67.9299 41.3631 67.5508C41.5203 67.1717 41.7507 66.8272 42.041 66.5372C42.6274 65.9513 43.4225 65.6224 44.2514 65.6227C44.6618 65.6229 45.0682 65.7039 45.4473 65.8612C45.8264 66.0184 46.1709 66.2488 46.4609 66.5391L50.5 70.5782L54.5391 66.5391C54.8291 66.2488 55.1736 66.0184 55.5527 65.8612C55.9318 65.7039 56.3382 65.6229 56.7486 65.6227C57.159 65.6225 57.5655 65.7032 57.9447 65.8601C58.324 66.017 58.6686 66.2471 58.959 66.5372C59.2493 66.8272 59.4797 67.1717 59.6369 67.5508C59.7942 67.9299 59.8752 68.3363 59.8754 68.7467C59.8755 69.1571 59.7949 69.5636 59.638 69.9428C59.4811 70.3221 59.251 70.6667 58.9609 70.9571L53.625 76.293V84.2461C71.1211 82.8047 84.875 69.4024 84.875 53.125V18.75Z" fill="#DEAD6F" fill-opacity="0.6"/>
</g>
</svg>
