<svg width="100" height="100" viewBox="0 0 100 100" fill="none" xmlns="http://www.w3.org/2000/svg">
<g id="ph:bird" clip-path="url(#clip0_1_74)">
<path id="Vector" d="M68.75 26.5624C68.75 27.4895 68.4751 28.3958 67.96 29.1666C67.4449 29.9375 66.7129 30.5383 65.8563 30.8931C64.9998 31.2479 64.0573 31.3407 63.148 31.1598C62.2387 30.979 61.4035 30.5325 60.7479 29.877C60.0924 29.2214 59.6459 28.3862 59.4651 27.4769C59.2842 26.5676 59.377 25.6251 59.7318 24.7686C60.0866 23.9121 60.6874 23.18 61.4583 22.6649C62.2291 22.1498 63.1354 21.8749 64.0625 21.8749C65.3057 21.8749 66.498 22.3688 67.3771 23.2478C68.2561 24.1269 68.75 25.3192 68.75 26.5624ZM48.875 50.7226C48.5603 50.4591 48.1968 50.2603 47.8052 50.1373C47.4137 50.0144 47.0017 49.9698 46.5929 50.0061C46.1841 50.0423 45.7865 50.1588 45.4227 50.3487C45.0589 50.5387 44.7361 50.7985 44.4727 51.1132L28.8477 69.8632C28.3172 70.5003 28.0616 71.3221 28.1371 72.1477C28.2125 72.9733 28.6129 73.7351 29.25 74.2655C29.8871 74.796 30.7089 75.0516 31.5345 74.9761C32.3601 74.9007 33.1219 74.5003 33.6523 73.8632L49.2773 55.1132C49.8044 54.4768 50.0579 53.6576 49.9825 52.8348C49.9071 52.012 49.5089 51.2526 48.875 50.7226ZM93.75 31.2499C93.7503 31.7645 93.6236 32.2713 93.381 32.7251C93.1384 33.1789 92.7875 33.5659 92.3594 33.8515L84.375 39.1718V46.8749C84.3636 57.6458 80.0798 67.9724 72.4637 75.5886C64.8475 83.2048 54.5209 87.4885 43.75 87.4999H3.125C2.53609 87.5003 1.95905 87.3342 1.46041 87.0209C0.961766 86.7076 0.561808 86.2597 0.306635 85.729C0.0514611 85.1982 -0.0485414 84.6061 0.0181532 84.021C0.0848478 83.4359 0.315525 82.8815 0.683597 82.4218L37.5 36.4023V29.6874C37.4947 24.0888 39.4937 18.6733 43.1352 14.4208C46.7767 10.1683 51.8202 7.35985 57.3529 6.50358C62.8856 5.64731 68.542 6.79983 73.2987 9.75258C78.0553 12.7053 81.5978 17.2632 83.2852 22.6015L92.3594 28.6483C92.7875 28.934 93.1384 29.3209 93.381 29.7747C93.6236 30.2286 93.7503 30.7353 93.75 31.2499ZM84.9922 31.2499L78.8672 27.164C78.2283 26.739 77.7681 26.0939 77.5742 25.3515C76.5237 21.3022 74.0324 17.7751 70.5674 15.4312C67.1024 13.0874 62.9015 12.0877 58.7521 12.6196C54.6027 13.1516 50.7898 15.1785 48.028 18.3206C45.2662 21.4626 43.7452 25.5041 43.75 29.6874V37.4999C43.7506 38.2097 43.5095 38.8985 43.0664 39.453L9.625 81.2499H43.75C52.8636 81.2396 61.6011 77.6146 68.0454 71.1703C74.4897 64.726 78.1147 55.9886 78.125 46.8749V37.4999C78.1247 36.9853 78.2514 36.4786 78.494 36.0247C78.7366 35.5709 79.0875 35.184 79.5156 34.8983L84.9922 31.2499Z" fill="#DEAD6F"/>
</g>
<defs>
<clipPath id="clip0_1_74">
<rect width="100" height="100" fill="white"/>
</clipPath>
</defs>
</svg>
