<svg width="30" height="30" viewBox="0 0 30 30" fill="none" xmlns="http://www.w3.org/2000/svg">
<g id="la:award">
<path id="Vector" d="M15 2.8125C14.4141 2.8125 13.8319 3.00938 13.3303 3.36938L11.7778 4.45312L9.98907 4.6875H9.96001L9.93095 4.71656C9.34429 4.84905 8.8072 5.14508 8.38193 5.57035C7.95665 5.99563 7.66062 6.53272 7.52813 7.11937L7.50001 7.14844V7.1775L7.26563 8.99437L6.18188 10.4006L6.15188 10.4297V10.4588C5.49657 11.5059 5.46751 12.8578 6.18188 13.8572L7.2947 15.4097L7.58813 17.0222L4.57032 21.6206L3.60376 23.0569H8.08595L9.1697 25.5759L9.84376 27.1875L10.8103 25.7222L13.7691 21.2691C14.5641 21.5953 15.4613 21.6253 16.2309 21.2691L19.1897 25.7222L20.1563 27.1875L20.8303 25.5759L21.9141 23.0569H26.3963L25.4297 21.6206L22.5 17.1684L22.7344 15.4106L23.8181 13.8581L23.8481 13.8291V13.8C24.5034 12.7528 24.5325 11.43 23.8181 10.4306L22.7344 8.87719L22.3828 7.11937H22.4119C22.4081 7.09687 22.3866 7.08188 22.3828 7.06031C22.2141 5.83406 21.2438 4.83844 20.01 4.6875H19.98L18.2222 4.45312L16.6697 3.36938C16.1848 3.01417 15.601 2.81946 15 2.8125ZM15 4.71656C15.2156 4.71656 15.4284 4.78219 15.5859 4.89281L17.2556 6.09375L17.4609 6.24L17.6953 6.27L19.7466 6.5625H19.7747C20.1966 6.60938 20.4891 6.90281 20.5369 7.32469V7.38281L20.9184 9.46312L20.9466 9.66844L21.0938 9.84375L22.2947 11.5134C22.5188 11.8247 22.5478 12.3525 22.2656 12.8025L20.9475 14.6484L20.9175 14.8828L20.625 16.9341V16.9622C20.6094 17.1087 20.5593 17.2494 20.4788 17.3728L20.4197 17.4028V17.4309C20.2804 17.5983 20.0805 17.7038 19.8638 17.7244H19.8047L17.6663 18.1059L17.4319 18.1341L17.2556 18.2812L15.5859 19.4822C15.2747 19.7062 14.7178 19.7353 14.2678 19.4531L12.7444 18.2812L12.5681 18.135L12.3047 18.105L10.2534 17.8125H10.2253C10.0928 17.8008 9.96496 17.7574 9.8527 17.6859C9.74044 17.6145 9.64702 17.517 9.58032 17.4019C9.51802 17.2938 9.47817 17.1742 9.46313 17.0503V16.9922L9.08251 14.8538L9.05251 14.6194L8.90626 14.4431L7.70532 12.7734C7.48126 12.4622 7.4522 11.9053 7.73439 11.4553L8.90626 9.93187L9.05251 9.75563L9.08157 9.49219L9.34595 7.52906C9.3497 7.515 9.37126 7.515 9.37501 7.5C9.43345 7.27432 9.5512 7.06838 9.71605 6.90354C9.88089 6.73869 10.0868 6.62095 10.3125 6.5625C10.3275 6.55875 10.3275 6.53719 10.3416 6.53344L12.3047 6.26906L12.5391 6.24094L12.7444 6.09375L14.4141 4.89281C14.5716 4.78312 14.7844 4.71656 15 4.71656ZM21.4744 18.9844L22.9106 21.1819H20.6531L20.4188 21.7678L19.7747 23.2612L17.7825 20.2144L18.2213 19.8928L20.0681 19.5703V19.5994C20.0897 19.5956 20.1038 19.5741 20.1263 19.5703C20.6197 19.4991 21.0859 19.2968 21.4744 18.9844ZM8.52563 19.0134C8.93272 19.3835 9.44413 19.6189 9.99001 19.6875H10.0191L11.8069 19.9219L12.2166 20.2444L10.2244 23.2612L9.58032 21.7678L9.34595 21.1819H7.09032L8.52563 19.0134Z" fill="#DEAD6F"/>
</g>
</svg>
