<svg width="30" height="30" viewBox="0 0 30 30" fill="none" xmlns="http://www.w3.org/2000/svg">
<g id="la:tag">
<path id="Vector" d="M15 4.6875L14.7066 4.95094L4.01344 15.7622L3.36937 16.4062L4.01344 17.0803L12.9197 25.9866L13.5937 26.6306L14.2387 25.9866L25.0481 15.2925L25.3125 15V4.6875H15ZM15.7912 6.5625H23.4375V14.2087L13.5937 23.9944L6.00562 16.4062L15.7912 6.5625ZM20.625 8.4375C20.1094 8.4375 19.6875 8.85938 19.6875 9.375C19.6875 9.89062 20.1094 10.3125 20.625 10.3125C21.1406 10.3125 21.5625 9.89062 21.5625 9.375C21.5625 8.85938 21.1406 8.4375 20.625 8.4375Z" fill="#DEAD6F"/>
</g>
</svg>
