<svg width="30" height="30" viewBox="0 0 30 30" fill="none" xmlns="http://www.w3.org/2000/svg">
<g id="la:shopping-cart">
<path id="Vector" d="M4.6875 6.56254C4.17188 6.56254 3.75 6.98441 3.75 7.50004C3.75 8.01566 4.17188 8.43754 4.6875 8.43754H6.76781L9.22875 18.2813C9.43687 19.1157 10.185 19.6875 11.0447 19.6875H21.7969C22.6425 19.6875 23.3606 19.1269 23.5837 18.3103L26.0156 9.37504H10.3125L10.7812 11.25H23.5837L21.7969 17.8125H11.0447L8.58375 7.96879C8.48236 7.56502 8.24838 7.20696 7.91929 6.95198C7.5902 6.69701 7.18505 6.55987 6.76875 6.56254H4.6875ZM20.625 19.6875C19.0828 19.6875 17.8125 20.9578 17.8125 22.5C17.8125 24.0422 19.0828 25.3125 20.625 25.3125C22.1672 25.3125 23.4375 24.0422 23.4375 22.5C23.4375 20.9578 22.1672 19.6875 20.625 19.6875ZM12.1875 19.6875C10.6453 19.6875 9.375 20.9578 9.375 22.5C9.375 24.0422 10.6453 25.3125 12.1875 25.3125C13.7297 25.3125 15 24.0422 15 22.5C15 20.9578 13.7297 19.6875 12.1875 19.6875ZM12.1875 21.5625C12.7153 21.5625 13.125 21.9732 13.125 22.5C13.125 23.0278 12.7144 23.4375 12.1875 23.4375C11.6597 23.4375 11.25 23.0269 11.25 22.5C11.25 21.9722 11.6606 21.5625 12.1875 21.5625ZM20.625 21.5625C21.1528 21.5625 21.5625 21.9732 21.5625 22.5C21.5625 23.0278 21.1519 23.4375 20.625 23.4375C20.0972 23.4375 19.6875 23.0269 19.6875 22.5C19.6875 21.9722 20.0981 21.5625 20.625 21.5625Z" fill="#DEAD6F"/>
</g>
</svg>
