<svg width="30" height="30" viewBox="0 0 30 30" fill="none" xmlns="http://www.w3.org/2000/svg">
<g id="la:user-check">
<path id="Vector" d="M11.25 1.875C7.63594 1.875 4.6875 4.82344 4.6875 8.4375C4.6875 10.6969 5.84062 12.7031 7.58812 13.8872C4.24406 15.3216 1.875 18.6403 1.875 22.5H3.75C3.75 18.3469 7.09688 15 11.25 15C12.5391 15 13.74 15.3375 14.7947 15.9084C13.7151 17.2434 13.1258 18.9081 13.125 20.625C13.125 24.7556 16.4944 28.125 20.625 28.125C24.7556 28.125 28.125 24.7556 28.125 20.625C28.125 16.4944 24.7556 13.125 20.625 13.125C19.045 13.1264 17.5062 13.6289 16.23 14.5603C15.8088 14.3017 15.3681 14.0763 14.9119 13.8863C15.8038 13.2842 16.5345 12.4727 17.0402 11.5228C17.5458 10.5729 17.811 9.51359 17.8125 8.4375C17.8125 4.82344 14.8641 1.875 11.25 1.875ZM11.25 3.75C13.8497 3.75 15.9375 5.83781 15.9375 8.4375C15.9375 11.0372 13.8497 13.125 11.25 13.125C8.65031 13.125 6.5625 11.0372 6.5625 8.4375C6.5625 5.83781 8.65031 3.75 11.25 3.75ZM20.625 15C23.7412 15 26.25 17.5087 26.25 20.625C26.25 23.7412 23.7412 26.25 20.625 26.25C17.5087 26.25 15 23.7412 15 20.625C15 17.5087 17.5087 15 20.625 15ZM23.7009 18.0759L20.625 21.1528L18.4866 19.0134L17.1384 20.3616L19.9509 23.1741L20.625 23.8181L21.2991 23.1741L25.0491 19.4241L23.7009 18.0759Z" fill="#DEAD6F"/>
</g>
</svg>
