<svg width="69" height="69" viewBox="0 0 69 69" fill="none" xmlns="http://www.w3.org/2000/svg">
<g filter="url(#filter0_d_1_539)">
<rect x="12.5" y="8.5" width="44" height="44" rx="22" stroke="#D9D9D8"/>
</g>
<path d="M40.5938 22.9375H28.4062C28.0156 22.9375 27.6836 23.0742 27.4102 23.3477C27.1367 23.6211 27 23.9531 27 24.3438V36.5312C27 36.9219 27.1367 37.2539 27.4102 37.5273C27.6836 37.8008 28.0156 37.9375 28.4062 37.9375H40.5938C40.9844 37.9375 41.3164 37.8008 41.5898 37.5273C41.8633 37.2539 42 36.9219 42 36.5312V24.3438C42 23.9531 41.8633 23.6211 41.5898 23.3477C41.3164 23.0742 40.9844 22.9375 40.5938 22.9375ZM37.3125 25.2812C37.3125 25.1543 37.3564 25.0469 37.4443 24.959C37.542 24.8613 37.6543 24.8125 37.7812 24.8125H39.6562C39.7832 24.8125 39.8906 24.8613 39.9785 24.959C40.0762 25.0469 40.125 25.1543 40.125 25.2812V27.1562C40.125 27.2832 40.0762 27.3955 39.9785 27.4932C39.8906 27.5811 39.7832 27.625 39.6562 27.625H37.7812C37.6543 27.625 37.542 27.5811 37.4443 27.4932C37.3564 27.3955 37.3125 27.2832 37.3125 27.1562V25.2812ZM34.5 27.625C35.2715 27.625 35.9307 27.8984 36.4775 28.4453C37.0342 28.9922 37.3125 29.6562 37.3125 30.4375C37.3125 31.209 37.0391 31.873 36.4922 32.4297C35.9453 32.9766 35.2812 33.25 34.5 33.25C33.7285 33.25 33.0645 32.9766 32.5078 32.4297C31.9609 31.8828 31.6875 31.2188 31.6875 30.4375C31.6875 29.666 31.9609 29.0068 32.5078 28.46C33.0547 27.9033 33.7188 27.625 34.5 27.625ZM40.125 35.5938C40.125 35.7207 40.0762 35.833 39.9785 35.9307C39.8906 36.0186 39.7832 36.0625 39.6562 36.0625H29.3438C29.2168 36.0625 29.1045 36.0186 29.0068 35.9307C28.9189 35.833 28.875 35.7207 28.875 35.5938V29.5H29.9004C29.8711 29.6465 29.8467 29.7979 29.8271 29.9541C29.8174 30.1104 29.8125 30.2715 29.8125 30.4375C29.8125 31.082 29.9346 31.6924 30.1787 32.2686C30.4229 32.835 30.7549 33.333 31.1748 33.7627C31.6045 34.1826 32.1025 34.5146 32.6689 34.7588C33.2451 35.0029 33.8555 35.125 34.5 35.125C35.1445 35.125 35.75 35.0029 36.3164 34.7588C36.8926 34.5146 37.3906 34.1826 37.8105 33.7627C38.2402 33.333 38.5771 32.835 38.8213 32.2686C39.0654 31.6924 39.1875 31.082 39.1875 30.4375C39.1875 30.2812 39.1777 30.125 39.1582 29.9688C39.1484 29.8027 39.1289 29.6465 39.0996 29.5H40.125V35.5938Z" fill="#CACACA"/>
<defs>
<filter id="filter0_d_1_539" x="0" y="0" width="69" height="69" filterUnits="userSpaceOnUse" color-interpolation-filters="sRGB">
<feFlood flood-opacity="0" result="BackgroundImageFix"/>
<feColorMatrix in="SourceAlpha" type="matrix" values="0 0 0 0 0 0 0 0 0 0 0 0 0 0 0 0 0 0 127 0" result="hardAlpha"/>
<feOffset dy="4"/>
<feGaussianBlur stdDeviation="6"/>
<feColorMatrix type="matrix" values="0 0 0 0 0 0 0 0 0 0 0 0 0 0 0 0 0 0 0.03 0"/>
<feBlend mode="normal" in2="BackgroundImageFix" result="effect1_dropShadow_1_539"/>
<feBlend mode="normal" in="SourceGraphic" in2="effect1_dropShadow_1_539" result="shape"/>
</filter>
</defs>
</svg>
