<svg width="22" height="22" viewBox="0 0 22 22" fill="none" xmlns="http://www.w3.org/2000/svg">
<g id="ion:person">
<path id="Vector" d="M14.2934 2.77492C13.4572 1.87215 12.2893 1.375 11.0002 1.375C9.70431 1.375 8.53255 1.86914 7.70025 2.76633C6.85892 3.6734 6.449 4.90617 6.54525 6.23734C6.73603 8.86359 8.7345 11 11.0002 11C13.266 11 15.261 8.86402 15.4548 6.2382C15.5524 4.91906 15.1399 3.68887 14.2934 2.77492ZM18.5627 20.625H3.43775C3.23977 20.6276 3.04372 20.586 2.86384 20.5033C2.68396 20.4205 2.52479 20.2987 2.3979 20.1468C2.11861 19.8129 2.00603 19.357 2.08939 18.8959C2.45204 16.8841 3.58384 15.1942 5.36275 14.0078C6.94314 12.9546 8.94505 12.375 11.0002 12.375C13.0554 12.375 15.0574 12.9551 16.6377 14.0078C18.4167 15.1938 19.5484 16.8837 19.9111 18.8955C19.9945 19.3566 19.8819 19.8125 19.6026 20.1463C19.4757 20.2984 19.3166 20.4203 19.1367 20.5031C18.9568 20.5859 18.7608 20.6275 18.5627 20.625Z" fill="#41403E"/>
</g>
</svg>
