<svg width="22" height="22" viewBox="0 0 22 22" fill="none" xmlns="http://www.w3.org/2000/svg">
<g id="ion:heart">
<path id="Vector" d="M11.0005 19.25C10.7245 19.2497 10.455 19.1663 10.227 19.0107C6.85013 16.7183 5.3879 15.1465 4.58138 14.1638C2.86263 12.0691 2.03977 9.91848 2.06298 7.58957C2.09005 4.92078 4.23118 2.75 6.83595 2.75C8.73001 2.75 10.0418 3.81691 10.8058 4.70551C10.83 4.73337 10.8599 4.75572 10.8935 4.77103C10.9271 4.78634 10.9636 4.79427 11.0005 4.79427C11.0374 4.79427 11.0739 4.78634 11.1074 4.77103C11.141 4.75572 11.1709 4.73337 11.1951 4.70551C11.9591 3.81605 13.2709 2.75 15.165 2.75C17.7698 2.75 19.9109 4.92078 19.938 7.59C19.9612 9.91934 19.1375 12.0699 17.4196 14.1642C16.6131 15.1469 15.1508 16.7187 11.7739 19.0111C11.5459 19.1665 11.2764 19.2498 11.0005 19.25Z" fill="#41403E"/>
</g>
</svg>
