<svg width="69" height="69" viewBox="0 0 69 69" fill="none" xmlns="http://www.w3.org/2000/svg">
<g filter="url(#filter0_d_1_533)">
<rect x="12.5" y="8.5" width="44" height="44" rx="22" stroke="#D9D9D8"/>
</g>
<path d="M42.5938 26.1172C42.1719 26.7734 41.6094 27.3594 40.9062 27.875V28.2969C40.9062 30.7578 40.0156 32.9961 38.2344 35.0117C36.4766 37.0039 34.1328 38 31.2031 38C29.3281 38 27.5938 37.4844 26 36.4531C26.375 36.5 26.6445 36.5234 26.8086 36.5234C28.3789 36.5234 29.7852 36.0312 31.0273 35.0469C30.3008 35.0234 29.6445 34.8008 29.0586 34.3789C28.4727 33.9336 28.0742 33.3711 27.8633 32.6914C28.1445 32.7383 28.3555 32.7617 28.4961 32.7617C28.7305 32.7617 29.0352 32.7148 29.4102 32.6211C28.6367 32.457 27.9805 32.0703 27.4414 31.4609C26.9258 30.8281 26.668 30.1016 26.668 29.2812V29.2461C27.1836 29.5273 27.6992 29.668 28.2148 29.668C27.207 29.0117 26.7031 28.0625 26.7031 26.8203C26.7031 26.2344 26.8555 25.6719 27.1602 25.1328C28.9648 27.3594 31.2969 28.543 34.1562 28.6836C34.1094 28.5195 34.0859 28.2617 34.0859 27.9102C34.0859 26.9492 34.4141 26.1406 35.0703 25.4844C35.7266 24.8281 36.5352 24.5 37.4961 24.5C38.457 24.5 39.2773 24.8633 39.957 25.5898C40.6602 25.4727 41.3867 25.1914 42.1367 24.7461C41.9023 25.5664 41.3984 26.1992 40.625 26.6445C41.3516 26.5742 42.0078 26.3984 42.5938 26.1172Z" fill="#CACACA"/>
<defs>
<filter id="filter0_d_1_533" x="0" y="0" width="69" height="69" filterUnits="userSpaceOnUse" color-interpolation-filters="sRGB">
<feFlood flood-opacity="0" result="BackgroundImageFix"/>
<feColorMatrix in="SourceAlpha" type="matrix" values="0 0 0 0 0 0 0 0 0 0 0 0 0 0 0 0 0 0 127 0" result="hardAlpha"/>
<feOffset dy="4"/>
<feGaussianBlur stdDeviation="6"/>
<feColorMatrix type="matrix" values="0 0 0 0 0 0 0 0 0 0 0 0 0 0 0 0 0 0 0.03 0"/>
<feBlend mode="normal" in2="BackgroundImageFix" result="effect1_dropShadow_1_533"/>
<feBlend mode="normal" in="SourceGraphic" in2="effect1_dropShadow_1_533" result="shape"/>
</filter>
</defs>
</svg>
